<?xml version="1.0" standalone="no"?><!DOCTYPE svg PUBLIC "-//W3C//DTD SVG 1.1//EN" "http://www.w3.org/Graphics/SVG/1.1/DTD/svg11.dtd"><svg t="1606406205071" class="icon" viewBox="0 0 1024 1024" version="1.1" xmlns="http://www.w3.org/2000/svg" p-id="4807" xmlns:xlink="http://www.w3.org/1999/xlink" width="64" height="64"><defs><style type="text/css"></style></defs><path d="M713.8 460.8L557.9 616.7V131.1c0-25.7-20.9-46.6-46.6-46.6-25.7 0-46.6 20.9-46.6 46.6v485.6L308.9 460.8c-18.2-18.2-47.7-18.2-65.9 0-18.2 18.2-18.2 47.7 0 65.9l235.4 235.4c4.3 4.3 9.5 7.8 15.3 10.1 0.2 0.1 0.5 0.1 0.7 0.2 5.3 2.1 11 3.3 17 3.3s11.7-1.2 17-3.3c0.2-0.1 0.5-0.1 0.7-0.2 5.8-2.4 10.9-5.8 15.3-10.1l235.4-235.4c18.2-18.2 18.2-47.7 0-65.9-18.3-18.2-47.8-18.2-66 0zM746.7 780.4H275.9c-25.7 0-46.6 20.9-46.6 46.6s20.9 46.6 46.6 46.6h470.8c25.7 0 46.6-20.9 46.6-46.6s-20.8-46.6-46.6-46.6z" p-id="4808"></path></svg>